<svg xmlns="http://www.w3.org/2000/svg" width="1200" height="750" viewBox="0 0 1200 750">
<defs><linearGradient id="bg" x1="0" y1="0" x2="1" y2="1">
<stop offset="0" stop-color="#14100b"/><stop offset=".6" stop-color="#3a2c18"/><stop offset="1" stop-color="#5c4423"/></linearGradient>
<radialGradient id="gl" cx="20%" cy="110%" r="70%"><stop offset="0" stop-color="#ffffff" stop-opacity=".07"/><stop offset="1" stop-color="#ffffff" stop-opacity="0"/></radialGradient></defs>
<rect width="1200" height="750" fill="url(#bg)"/><rect width="1200" height="750" fill="url(#gl)"/>

   <g fill="none" stroke="#e7c9a0" stroke-width="5" opacity=".9" transform="translate(150,205) scale(1.7)">
   <rect x="40" y="90" width="120" height="80"/><line x1="40" y1="110" x2="160" y2="110"/>
   <line x1="60" y1="110" x2="60" y2="170"/><line x1="85" y1="110" x2="85" y2="170"/><line x1="110" y1="110" x2="110" y2="170"/><line x1="135" y1="110" x2="135" y2="170"/>
   <polygon points="30,90 100,40 170,90"/><line x1="100" y1="40" x2="100" y2="20"/><rect x="94" y="14" width="12" height="8" fill="#e7c9a0"/></g>
<text x="640" y="330" font-family="'Noto Sans KR','Malgun Gothic',sans-serif" font-size="24" letter-spacing="8" fill="#e7c9a0" font-weight="600">JUNGL MEDIA</text>
<text x="640" y="410" font-family="'Noto Serif KR','Nanum Myeongjo',serif" font-size="64" fill="#ffffff" font-weight="900" letter-spacing="-1">아키텍트리포트</text>
<g transform="translate(640,455)">
  <text x="0" y="24" font-family="'Noto Sans KR','Malgun Gothic',sans-serif" font-size="27" fill="rgba(255,255,255,.92)" font-weight="900">정엘</text>
  <polygon points="66,0 73,7 73,26 92,26 92,32 66,32" fill="#C0111F"/>
  <text x="102" y="24" font-family="sans-serif" font-size="14" letter-spacing="2" fill="rgba(255,255,255,.5)">MEDIA</text>
</g>
</svg>