<svg xmlns="http://www.w3.org/2000/svg" width="1200" height="750" viewBox="0 0 1200 750">
<defs><linearGradient id="bg" x1="0" y1="0" x2="1" y2="1">
<stop offset="0" stop-color="#120d18"/><stop offset=".6" stop-color="#2b1f3d"/><stop offset="1" stop-color="#453263"/></linearGradient>
<radialGradient id="gl" cx="20%" cy="110%" r="70%"><stop offset="0" stop-color="#ffffff" stop-opacity=".07"/><stop offset="1" stop-color="#ffffff" stop-opacity="0"/></radialGradient></defs>
<rect width="1200" height="750" fill="url(#bg)"/><rect width="1200" height="750" fill="url(#gl)"/>

   <g fill="none" stroke="#cbb8e8" stroke-width="5" opacity=".92" transform="translate(155,210) scale(1.65)">
   <line x1="100" y1="30" x2="100" y2="160"/><line x1="55" y1="45" x2="145" y2="45"/>
   <path d="M55 45 L38 85 A20 12 0 0 0 72 85 Z"/><path d="M145 45 L128 85 A20 12 0 0 0 162 85 Z"/>
   <rect x="70" y="160" width="60" height="10" rx="3"/><circle cx="100" cy="30" r="6"/></g>
<text x="640" y="330" font-family="'Noto Sans KR','Malgun Gothic',sans-serif" font-size="24" letter-spacing="8" fill="#cbb8e8" font-weight="600">JUNGL MEDIA</text>
<text x="640" y="410" font-family="'Noto Serif KR','Nanum Myeongjo',serif" font-size="64" fill="#ffffff" font-weight="900" letter-spacing="-1">판례·예규</text>
<g transform="translate(640,455)">
  <text x="0" y="24" font-family="'Noto Sans KR','Malgun Gothic',sans-serif" font-size="27" fill="rgba(255,255,255,.92)" font-weight="900">정엘</text>
  <polygon points="66,0 73,7 73,26 92,26 92,32 66,32" fill="#C0111F"/>
  <text x="102" y="24" font-family="sans-serif" font-size="14" letter-spacing="2" fill="rgba(255,255,255,.5)">MEDIA</text>
</g>
</svg>