<svg xmlns="http://www.w3.org/2000/svg" width="1200" height="750" viewBox="0 0 1200 750">
<defs><linearGradient id="bg" x1="0" y1="0" x2="1" y2="1">
<stop offset="0" stop-color="#0b1410"/><stop offset=".6" stop-color="#1e3a2a"/><stop offset="1" stop-color="#2f5c42"/></linearGradient>
<radialGradient id="gl" cx="20%" cy="110%" r="70%"><stop offset="0" stop-color="#ffffff" stop-opacity=".07"/><stop offset="1" stop-color="#ffffff" stop-opacity="0"/></radialGradient></defs>
<rect width="1200" height="750" fill="url(#bg)"/><rect width="1200" height="750" fill="url(#gl)"/>

   <g fill="none" stroke="#a8d8b8" stroke-width="5" opacity=".92" transform="translate(155,210) scale(1.65)">
   <circle cx="100" cy="100" r="65"/><circle cx="100" cy="100" r="4" fill="#a8d8b8"/>
   <line x1="100" y1="100" x2="100" y2="55"/><line x1="100" y1="100" x2="132" y2="115"/>
   <line x1="100" y1="35" x2="100" y2="45"/><line x1="100" y1="155" x2="100" y2="165"/>
   <line x1="35" y1="100" x2="45" y2="100"/><line x1="155" y1="100" x2="165" y2="100"/></g>
<text x="640" y="330" font-family="'Noto Sans KR','Malgun Gothic',sans-serif" font-size="24" letter-spacing="8" fill="#a8d8b8" font-weight="600">JUNGL MEDIA</text>
<text x="640" y="410" font-family="'Noto Serif KR','Nanum Myeongjo',serif" font-size="64" fill="#ffffff" font-weight="900" letter-spacing="-1">100년기업스토리</text>
<g transform="translate(640,455)">
  <text x="0" y="24" font-family="'Noto Sans KR','Malgun Gothic',sans-serif" font-size="27" fill="rgba(255,255,255,.92)" font-weight="900">정엘</text>
  <polygon points="66,0 73,7 73,26 92,26 92,32 66,32" fill="#C0111F"/>
  <text x="102" y="24" font-family="sans-serif" font-size="14" letter-spacing="2" fill="rgba(255,255,255,.5)">MEDIA</text>
</g>
</svg>