<svg xmlns="http://www.w3.org/2000/svg" width="1200" height="750" viewBox="0 0 1200 750">
<defs><linearGradient id="bg" x1="0" y1="0" x2="1" y2="1">
<stop offset="0" stop-color="#0c1219"/><stop offset=".6" stop-color="#1d3049"/><stop offset="1" stop-color="#2f4d73"/></linearGradient>
<radialGradient id="gl" cx="20%" cy="110%" r="70%"><stop offset="0" stop-color="#ffffff" stop-opacity=".07"/><stop offset="1" stop-color="#ffffff" stop-opacity="0"/></radialGradient></defs>
<rect width="1200" height="750" fill="url(#bg)"/><rect width="1200" height="750" fill="url(#gl)"/>

   <g fill="none" stroke="#a9c7e8" stroke-width="5" opacity=".9" transform="translate(165,215) scale(1.6)">
   <rect x="55" y="30" width="90" height="130" rx="6"/><line x1="70" y1="55" x2="130" y2="55"/><line x1="70" y1="75" x2="130" y2="75"/>
   <line x1="70" y1="95" x2="130" y2="95"/><line x1="70" y1="115" x2="110" y2="115"/>
   <circle cx="130" cy="140" r="28" fill="#1d3049"/><text x="130" y="151" font-size="32" fill="#a9c7e8" text-anchor="middle" font-family="serif">§</text></g>
<text x="640" y="330" font-family="'Noto Sans KR','Malgun Gothic',sans-serif" font-size="24" letter-spacing="8" fill="#a9c7e8" font-weight="600">JUNGL MEDIA</text>
<text x="640" y="410" font-family="'Noto Serif KR','Nanum Myeongjo',serif" font-size="64" fill="#ffffff" font-weight="900" letter-spacing="-1">세법브리핑</text>
<g transform="translate(640,455)">
  <text x="0" y="24" font-family="'Noto Sans KR','Malgun Gothic',sans-serif" font-size="27" fill="rgba(255,255,255,.92)" font-weight="900">정엘</text>
  <polygon points="66,0 73,7 73,26 92,26 92,32 66,32" fill="#C0111F"/>
  <text x="102" y="24" font-family="sans-serif" font-size="14" letter-spacing="2" fill="rgba(255,255,255,.5)">MEDIA</text>
</g>
</svg>