<svg xmlns="http://www.w3.org/2000/svg" width="1200" height="750" viewBox="0 0 1200 750">
<defs><linearGradient id="bg" x1="0" y1="0" x2="1" y2="1">
<stop offset="0" stop-color="#1a0b06"/><stop offset=".45" stop-color="#3a1710"/><stop offset=".75" stop-color="#5a2317"/><stop offset="1" stop-color="#7a2f1c"/></linearGradient>
<radialGradient id="f1" cx="50%" cy="65%" r="60%">
<stop offset="0" stop-color="#ffdf9e"/><stop offset=".45" stop-color="#ff9d3e"/><stop offset=".8" stop-color="#e0451f"/><stop offset="1" stop-color="#a02414"/></radialGradient></defs>
<rect width="1200" height="750" fill="url(#bg)"/>
<g transform="translate(790,205) scale(1.7)">
<path d="M100 18 C112 52 146 64 146 108 C146 142 126 168 100 172 C74 168 54 142 54 108 C54 84 66 74 74 58 C80 74 88 80 92 76 C86 58 92 34 100 18 Z" fill="url(#f1)"/>
<path d="M100 88 C106 104 120 110 120 130 C120 146 111 157 100 159 C89 157 80 146 80 130 C80 118 88 110 92 100 C94 108 98 110 100 108 C97 100 98 94 100 88 Z" fill="#fff3d6" opacity=".85"/>
</g>
<text x="90" y="190" font-family="'Noto Sans KR','Malgun Gothic',sans-serif" font-size="26" letter-spacing="10" fill="#e7c9a0" font-weight="600">창 간 사</text>
<text x="90" y="300" font-family="'Noto Serif KR','Nanum Myeongjo',serif" font-size="76" fill="#ffffff" font-weight="900" letter-spacing="-2">불꽃은</text>
<text x="90" y="400" font-family="'Noto Serif KR','Nanum Myeongjo',serif" font-size="76" font-weight="900" letter-spacing="-2"><tspan fill="#ffb46b">이어져야</tspan><tspan fill="#ffffff"> 합니다</tspan></text>
<rect x="90" y="445" width="110" height="5" fill="#C0111F"/>
<text x="90" y="510" font-family="'Noto Sans KR','Malgun Gothic',sans-serif" font-size="27" fill="#d8cfc7">가업승계 그 이상, 100년 기업의 이야기를 잇는</text>
<text x="90" y="555" font-family="'Noto Sans KR','Malgun Gothic',sans-serif" font-size="27" fill="#d8cfc7">경제신문 가업승계저널이 첫걸음을 내딛습니다.</text>
<g transform="translate(90,650)">
  <text x="0" y="28" font-family="'Noto Sans KR','Malgun Gothic',sans-serif" font-size="34" fill="#ffffff" font-weight="900">정엘</text>
  <polygon points="82,0 89,7 89,27 112,27 112,34 82,34" fill="#C0111F"/>
  <text x="124" y="26" font-family="sans-serif" font-size="16" letter-spacing="2" fill="#bfae9f">MEDIA</text>
</g>
</svg>